HIERARCHY
ROOT Hips
{
    OFFSET 0.000000 0.000000 0.000000
    CHANNELS 6 Xposition Yposition Zposition Zrotation Xrotation Yrotation
    JOINT Spine
    {
        OFFSET -0.000000 0.071730 0.000000
        CHANNELS 3 Zrotation Xrotation Yrotation
        JOINT Spine1
        {
            OFFSET -0.000000 0.222084 0.000000
            CHANNELS 3 Zrotation Xrotation Yrotation
            JOINT Neck
            {
                OFFSET -0.000000 0.239579 0.000000
                CHANNELS 3 Zrotation Xrotation Yrotation
                JOINT Head
                {
                    OFFSET -0.000000 0.173000 0.022323
                    CHANNELS 3 Zrotation Xrotation Yrotation
                    End Site
                    {
                        OFFSET -0.000000 0.174952 0.000000
                    }
                }
            }
            JOINT LeftShoulder
            {
                OFFSET 0.034080 0.200295 -0.001792
                CHANNELS 3 Zrotation Xrotation Yrotation
                JOINT LeftArm
                {
                    OFFSET 0.119094 0.000000 0.000000
                    CHANNELS 3 Zrotation Xrotation Yrotation
                    JOINT LeftForeArm
                    {
                        OFFSET 0.257600 0.000000 0.000000
                        CHANNELS 3 Zrotation Xrotation Yrotation
                        JOINT LeftHand
                        {
                            OFFSET 0.218783 0.000000 0.000000
                            CHANNELS 3 Zrotation Xrotation Yrotation
                            End Site
                            {
                                OFFSET 0.131214 0.000000 0.000000
                            }
                        }
                    }
                }
            }
            JOINT RightShoulder
            {
                OFFSET -0.035127 0.200295 -0.001792
                CHANNELS 3 Zrotation Xrotation Yrotation
                JOINT RightArm
                {
                    OFFSET -0.119094 0.000000 0.000000
                    CHANNELS 3 Zrotation Xrotation Yrotation
                    JOINT RightForeArm
                    {
                        OFFSET -0.257600 0.000000 0.000000
                        CHANNELS 3 Zrotation Xrotation Yrotation
                        JOINT RightHand
                        {
                            OFFSET -0.218783 0.000000 0.000000
                            CHANNELS 3 Zrotation Xrotation Yrotation
                            End Site
                            {
                                OFFSET -0.131214 0.000000 0.000000
                            }
                        }
                    }
                }
            }
        }
    }
    JOINT LeftUpLeg
    {
        OFFSET 0.087476 0.000000 0.000000
        CHANNELS 3 Zrotation Xrotation Yrotation
        JOINT LeftLeg
        {
            OFFSET -0.000000 -0.348019 0.000000
            CHANNELS 3 Zrotation Xrotation Yrotation
            JOINT LeftFoot
            {
                OFFSET -0.000000 -0.348565 0.000000
                CHANNELS 3 Zrotation Xrotation Yrotation
                JOINT LeftToeBase
                {
                    OFFSET -0.000000 -0.056859 0.131214
                    CHANNELS 3 Zrotation Xrotation Yrotation
                    End Site
                    {
                        OFFSET -0.000000 0.000000 0.034990
                    }
                }
            }
        }
    }
    JOINT RightUpLeg
    {
        OFFSET -0.087476 0.000000 0.000000
        CHANNELS 3 Zrotation Xrotation Yrotation
        JOINT RightLeg
        {
            OFFSET -0.000000 -0.348019 0.000000
            CHANNELS 3 Zrotation Xrotation Yrotation
            JOINT RightFoot
            {
                OFFSET -0.000000 -0.348565 0.000000
                CHANNELS 3 Zrotation Xrotation Yrotation
                JOINT RightToeBase
                {
                    OFFSET -0.000000 -0.056859 0.131214
                    CHANNELS 3 Zrotation Xrotation Yrotation
                    End Site
                    {
                        OFFSET -0.000000 0.000000 0.034990
                    }
                }
            }
        }
    }
}
MOTION
Frames:    10
Frame Time:    0.010000
-0.097062    0.764947    0.258393    3.216666    7.932079    -170.166931    -3.652342    10.873864    -6.785038    -10.378499    -4.636730    -2.812714    28.907267    12.759171    -18.174700    3.118501    -1.781763    -11.888165    7.367944    7.238898    7.599961    -55.201378    17.753523    -20.818958    -6.360529    24.417482    -8.454990    -7.955091    23.620234    5.778812    -16.037931    -9.381930    9.912290    0.666308    20.972872    22.709841    -9.651693    -25.929308    69.998833    40.604191    -11.304214    23.157984    26.439623    11.614118    -10.494238    -2.154192    13.552580    8.597019    -10.943451    17.235189    17.042881    0.000000    0.000000    0.000000    -13.580731    7.522261    1.915069    -3.674020    16.255207    3.506956    16.564308    25.431862    -7.261775    0.000000    0.000000    0.000000    
-0.086293    0.768441    0.255667    3.180293    7.694632    -170.250809    -3.174068    10.763763    -7.020495    -11.261458    -4.965970    -2.943928    28.871864    13.449008    -16.976704    2.627873    -2.340596    -10.417811    7.118356    7.233780    8.088166    -55.171600    15.788105    -18.933020    -6.124735    23.185789    -8.925359    -7.559183    22.463411    4.618237    -15.997602    -9.651181    9.771525    0.481460    20.812798    21.948008    -11.410446    -27.295835    68.136078    42.082287    -11.543640    23.069937    26.351948    11.667278    -9.971793    -2.188481    13.634292    8.263250    -10.685235    16.246906    15.528522    0.000000    0.000000    0.000000    -12.945942    7.517544    1.802942    -3.666151    16.088264    3.790215    18.391626    25.563097    -9.731153    0.000000    0.000000    0.000000    
-0.076037    0.771480    0.252555    3.056821    7.694834    -170.315140    -2.744073    10.806033    -7.309178    -12.107994    -5.174917    -3.086613    28.748589    14.309478    -15.882022    2.096453    -3.274659    -9.028050    6.960403    7.174898    8.579096    -55.160370    14.133683    -17.079082    -5.703251    21.914497    -9.438697    -6.523849    21.282824    3.650251    -16.154966    -10.144206    9.704290    0.603278    20.479353    21.043320    -12.549652    -28.265123    66.607300    42.434822    -12.016181    23.047876    26.005919    11.784787    -9.194183    -2.158530    13.857393    7.402126    -9.202954    16.156618    15.552942    0.000000    0.000000    0.000000    -12.474643    7.864345    1.846052    -3.606620    15.667006    3.687196    18.538099    25.618097    -9.504107    0.000000    0.000000    0.000000    
-0.066434    0.774221    0.249856    2.842258    7.561566    -170.375671    -2.329921    10.816569    -7.631977    -13.080551    -5.537898    -3.267020    28.588837    15.005196    -14.569848    1.854110    -3.598869    -7.511565    7.007645    6.934865    8.897910    -55.414803    11.578729    -14.788396    -5.616010    20.855238    -10.061817    -6.684279    20.227743    3.000283    -15.861680    -9.824505    10.006048    0.257679    19.623192    19.865696    -14.160054    -29.485626    64.859497    42.966736    -12.489835    23.082075    25.366941    11.751670    -8.300348    -1.978086    14.524627    6.171384    -8.539333    15.336637    14.871457    0.000000    0.000000    0.000000    -12.241867    8.180050    1.351000    -3.515355    15.016524    3.957568    18.594854    25.700672    -9.233793    0.000000    0.000000    0.000000    
-0.057280    0.776836    0.247019    2.560957    7.485565    -170.469604    -2.121937    10.805155    -7.827375    -13.802687    -5.751024    -3.386396    28.406721    15.500157    -13.333910    1.497029    -3.775447    -6.124667    7.129605    6.948740    9.134216    -55.602253    10.344037    -13.107854    -5.143846    19.494190    -10.500220    -8.946684    18.774244    3.692662    -15.930769    -9.970255    10.016135    0.337241    18.855877    18.932341    -15.347505    -30.174187    62.855717    40.575417    -13.762122    22.190773    24.527723    11.796784    -7.294762    -1.748092    15.271821    3.700488    -8.049559    14.399524    15.336118    0.000000    0.000000    0.000000    -12.027614    8.337962    -0.243571    -3.815062    14.742270    5.911683    18.921864    25.498028    -9.517105    0.000000    0.000000    0.000000    
-0.048678    0.779328    0.244088    2.198763    7.513067    -170.605377    -2.070325    10.904149    -7.842695    -14.351727    -5.917604    -3.439105    28.130716    15.965110    -12.124317    1.201619    -4.075089    -4.806504    7.177504    6.850976    9.075314    -55.775108    9.136700    -11.326030    -4.705601    16.854462    -10.741721    -7.980151    16.311262    1.778226    -16.090378    -9.992176    9.771093    0.479723    18.031527    18.187042    -17.165281    -31.131094    60.615128    42.257843    -13.549390    22.865753    23.493273    11.910810    -6.514049    -1.593279    16.182899    2.983999    -7.141306    13.581535    14.319900    0.000000    0.000000    0.000000    -11.900566    9.140393    2.887922    -2.938652    13.737532    2.148994    19.040524    25.798023    -9.170561    0.000000    0.000000    0.000000    
-0.040522    0.781778    0.241110    1.813723    7.570336    -170.738861    -2.147434    11.094792    -7.691456    -14.561674    -6.122163    -3.428777    27.136099    16.750504    -10.918123    1.854436    -4.925757    -3.706237    7.166868    6.816062    8.825404    -56.068287    8.219787    -9.723679    -4.139829    15.229577    -10.926901    -8.159523    14.760142    1.258526    -16.649435    -10.041998    9.207684    0.710771    17.272890    17.745075    -18.302042    -32.008007    58.526890    40.219387    -14.999079    22.266682    22.359875    12.128137    -5.630826    -1.512608    17.074261    1.043264    -6.946954    12.506944    14.896552    0.000000    0.000000    0.000000    -11.826565    9.727150    3.131597    -2.804332    13.038533    1.800934    19.270321    25.909061    -9.174343    0.000000    0.000000    0.000000    
-0.032776    0.784430    0.238078    1.386575    7.693412    -170.917816    -2.282912    11.365128    -7.518851    -14.744115    -6.375296    -3.419905    25.843573    17.048014    -9.558820    2.895430    -4.462389    -2.715977    6.967616    6.830198    8.511033    -56.163971    7.538280    -8.117798    -3.454235    13.714820    -11.090923    -8.103322    13.358911    0.430543    -17.149315    -10.151484    8.837705    1.059667    16.569336    16.875368    -20.234734    -32.900867    56.398582    44.289207    -13.908731    23.748976    21.093670    12.469145    -4.855942    -1.421789    17.809269    0.113073    -6.680413    11.646189    14.632912    0.000000    0.000000    0.000000    -11.824764    10.398758    3.360042    -2.634282    12.258604    1.270862    19.281864    26.208403    -8.965255    0.000000    0.000000    0.000000    
-0.025373    0.787028    0.235270    1.023958    7.706979    -171.109802    -2.278779    11.467417    -7.388796    -15.086811    -6.535777    -3.417902    26.030249    17.413363    -8.599566    1.372031    -5.078354    -1.440168    7.030266    7.253743    8.549184    -56.476753    6.382915    -7.213269    -3.001945    12.651279    -11.199496    -7.951857    12.351063    0.186979    -17.480495    -10.161559    8.510052    1.376471    15.712021    16.241508    -22.011652    -33.769039    54.007576    44.944572    -14.286099    23.956432    19.800903    12.690398    -3.945571    -1.406442    18.487055    -0.710340    -6.381581    10.936851    14.383087    0.000000    0.000000    0.000000    -11.697983    10.757377    3.417360    -2.796158    11.834137    1.750612    19.865023    26.243122    -9.324647    0.000000    0.000000    0.000000    
-0.018410    0.789688    0.232583    0.709902    7.698312    -171.352219    -2.205308    11.482250    -7.290565    -15.416272    -6.589466    -3.408849    25.341089    17.746145    -7.423789    1.340000    -5.339007    -0.351421    6.999270    7.404412    8.621661    -56.658470    5.465621    -6.187871    -2.626113    11.810072    -11.171816    -7.654960    11.591590    -0.506424    -17.644159    -10.183893    8.377941    1.378299    14.697413    15.438293    -23.120207    -34.512104    52.180237    43.333096    -15.222868    24.454851    18.473707    12.933507    -3.878843    -1.759856    18.953861    1.512680    -6.118998    10.531651    12.335690    0.000000    0.000000    0.000000    -11.606502    11.167724    3.431526    -2.829166    11.165966    1.912051    20.137316    26.602825    -9.410004    0.000000    0.000000    0.000000    
